<?xml version="1.0" encoding="utf-8"?>
<svg viewBox="0 0 500 500" xmlns="http://www.w3.org/2000/svg">
  <path id="path-1" d="M 250.084 3.472 C 115.476 3.472 6.536 113.688 6.536 249.894 C 6.536 386.09 115.467 496.315 250.084 496.315 C 384.692 496.315 493.632 386.099 493.632 249.894 C 493.632 113.698 384.701 3.472 250.084 3.472 Z M 192.133 353.843 C 192.133 353.843 108.012 268.695 101.965 262.588 C 88.514 248.978 88.514 226.831 101.965 213.233 C 115.45 199.588 137.259 199.588 150.745 213.233 L 205.204 268.335 C 211.976 275.186 222.966 275.139 229.681 268.253 L 349.257 145.522 C 362.697 131.726 384.656 131.632 398.21 145.347 C 411.557 158.852 411.638 180.907 398.382 194.517 C 268.528 327.821 243.868 353.831 243.868 353.831 C 229.612 368.255 206.4 368.267 192.133 353.843 Z" stroke-width="1" style="fill: rgb(0, 128, 85);"/>
</svg>