<?xml version="1.0" encoding="utf-8"?>
<svg viewBox="0 0 500 500" xmlns="http://www.w3.org/2000/svg">
  <path id="path" d="M 250 22.416 C 115.04 22.416 5.812 124.06 5.813 249.681 C 5.813 375.289 115.026 476.945 250 476.945 C 384.959 476.945 494.187 375.301 494.186 249.681 C 494.186 124.072 384.973 22.416 250 22.416 Z M 402.431 391.549 C 318.381 469.776 181.619 469.776 97.568 391.549 L 97.568 391.549 C 13.517 313.322 13.517 186.039 97.568 107.812 C 181.818 29.402 318.175 29.396 402.432 107.814 C 486.483 186.039 486.483 313.321 402.431 391.549 Z" stroke-width="1" style="fill: rgb(0, 128, 85);"/>
  <path id="path_1" d="M 393.126 151.054 C 370.67 130.154 334.22 130.252 311.899 151.327 L 222.809 235.439 L 187.811 202.866 C 165.443 182.048 129.243 182.046 106.873 202.866 C 84.558 223.634 84.558 257.425 106.873 278.195 C 164.858 332.16 148.266 316.754 181.692 347.844 C 204.687 369.235 242.096 369.224 265.077 347.833 C 296.987 318.135 393.418 226.11 393.418 226.11 C 415.412 205.343 415.279 171.673 393.126 151.054 Z M 373.039 207.415 C 265.304 309.149 244.843 329.002 244.843 329.002 C 233.011 340.014 213.755 340.015 201.92 329.008 C 201.92 329.008 132.118 264.026 127.106 259.362 C 115.95 248.979 115.95 232.082 127.106 221.698 C 138.292 211.288 156.391 211.288 167.575 221.698 L 212.764 263.755 C 218.382 268.983 227.499 268.949 233.072 263.687 L 332.277 170.022 C 343.425 159.497 361.652 159.425 372.891 169.886 C 383.968 180.196 384.035 197.031 373.039 207.415 Z" stroke-width="1" style="fill: rgb(0, 128, 85);"/>
</svg>