<?xml version="1.0" encoding="utf-8"?>
<svg viewBox="0 0 500 500" xmlns="http://www.w3.org/2000/svg">
  <path id="path" d="M 405.659 69.681 L 322.117 69.681 L 322.117 54.459 C 322.117 29.239 301.716 8.794 276.549 8.794 L 215.791 8.794 C 190.623 8.794 170.222 29.239 170.222 54.459 L 170.222 69.681 L 86.68 69.681 C 65.708 69.681 48.706 86.719 48.706 107.736 L 48.706 138.179 C 48.706 146.586 55.506 153.401 63.896 153.401 L 428.444 153.401 C 436.833 153.401 443.633 146.586 443.633 138.179 L 443.633 107.736 C 443.633 86.719 426.631 69.681 405.659 69.681 Z M 200.601 54.459 C 200.601 46.068 207.417 39.238 215.791 39.238 L 276.549 39.238 C 284.922 39.238 291.738 46.068 291.738 54.459 L 291.738 69.681 L 200.601 69.681 Z M 77.532 183.844 C 74.822 183.844 72.662 186.114 72.791 188.827 L 85.322 452.394 C 86.48 476.787 106.474 495.89 130.834 495.89 L 361.505 495.89 C 385.866 495.89 405.859 476.787 407.017 452.394 L 419.548 188.827 C 419.677 186.114 417.518 183.844 414.807 183.844 Z M 306.928 221.899 C 306.928 213.489 313.725 206.677 322.117 206.677 C 330.509 206.677 337.307 213.489 337.307 221.899 L 337.307 419.781 C 337.307 428.191 330.509 435.003 322.117 435.003 C 313.725 435.003 306.928 428.191 306.928 419.781 Z M 230.98 221.899 C 230.98 213.489 237.777 206.677 246.17 206.677 C 254.562 206.677 261.359 213.489 261.359 221.899 L 261.359 419.781 C 261.359 428.191 254.562 435.003 246.17 435.003 C 237.777 435.003 230.98 428.191 230.98 419.781 Z M 155.033 221.899 C 155.033 213.489 161.83 206.677 170.222 206.677 C 178.614 206.677 185.412 213.489 185.412 221.899 L 185.412 419.781 C 185.412 428.191 178.614 435.003 170.222 435.003 C 161.83 435.003 155.033 428.191 155.033 419.781 Z" stroke-width="1" style="fill: rgb(0, 128, 85);"/>
</svg>