<?xml version="1.0" encoding="utf-8"?>
<svg viewBox="0 0 500 500" xmlns="http://www.w3.org/2000/svg">
  <path id="path_1" d="M 405.302 70.559 L 323.786 70.559 L 323.786 55.596 C 323.786 30.845 303.839 10.709 279.323 10.709 L 220.038 10.709 C 195.521 10.709 175.575 30.845 175.575 55.596 L 175.575 70.559 L 94.059 70.559 C 73.629 70.559 57.006 87.339 57.006 107.965 L 57.006 160.333 C 57.006 168.595 63.643 175.294 71.827 175.294 L 79.928 175.294 L 92.732 446.752 C 93.863 470.725 113.371 489.503 137.144 489.503 L 362.217 489.503 C 385.991 489.503 405.499 470.725 406.629 446.752 L 419.434 175.294 L 427.534 175.294 C 435.719 175.294 442.355 168.595 442.355 160.333 L 442.355 107.965 C 442.355 87.339 425.732 70.559 405.302 70.559 Z M 205.217 55.596 C 205.217 47.346 211.866 40.634 220.038 40.634 L 279.323 40.634 C 287.494 40.634 294.145 47.346 294.145 55.596 L 294.145 70.559 L 205.217 70.559 Z M 86.649 107.965 C 86.649 103.839 89.973 100.483 94.059 100.483 L 405.302 100.483 C 409.388 100.483 412.713 103.839 412.713 107.965 L 412.713 145.369 L 86.649 145.369 Z M 377.021 445.328 C 376.644 453.318 370.141 459.579 362.217 459.579 L 137.144 459.579 C 129.22 459.579 122.717 453.318 122.34 445.328 L 109.603 175.294 L 389.758 175.294 Z" stroke-width="1" style="fill: rgb(0, 128, 85);"/>
  <path id="path_2" d="M 249.681 429.655 C 257.865 429.655 264.502 422.955 264.502 414.691 L 264.502 220.181 C 264.502 211.919 257.865 205.219 249.681 205.219 C 241.496 205.219 234.859 211.919 234.859 220.181 L 234.859 414.691 C 234.859 422.955 241.495 429.655 249.681 429.655 Z M 323.786 429.655 C 331.971 429.655 338.607 422.955 338.607 414.691 L 338.607 220.181 C 338.607 211.919 331.971 205.219 323.786 205.219 C 315.601 205.219 308.965 211.919 308.965 220.181 L 308.965 414.691 C 308.965 422.955 315.6 429.655 323.786 429.655 Z M 175.575 429.655 C 183.761 429.655 190.397 422.955 190.397 414.691 L 190.397 220.181 C 190.397 211.919 183.761 205.219 175.575 205.219 C 167.39 205.219 160.754 211.919 160.754 220.181 L 160.754 414.691 C 160.754 422.955 167.389 429.655 175.575 429.655 Z" stroke-width="1" style="fill: rgb(0, 128, 85);"/>
</svg>