<?xml version="1.0" encoding="utf-8"?>
<svg viewBox="0 0 500 500" xmlns="http://www.w3.org/2000/svg">
  <path id="path" d="M 453.135 161.942 C 441.527 134.912 425.918 111.595 406.316 91.993 C 386.71 72.39 363.394 56.784 336.363 45.171 C 309.335 33.558 280.979 27.756 251.285 27.756 C 223.307 27.756 196.233 33.033 170.058 43.599 C 143.889 54.163 120.62 69.056 100.253 88.282 L 63.133 51.447 C 57.422 45.546 50.858 44.215 43.432 47.448 C 35.817 50.688 32.01 56.305 32.01 64.298 L 32.01 192.205 C 32.01 197.153 33.819 201.436 37.436 205.052 C 41.055 208.669 45.338 210.478 50.286 210.478 L 178.193 210.478 C 186.189 210.478 191.803 206.671 195.039 199.057 C 198.273 191.634 196.942 185.069 191.04 179.356 L 151.925 139.958 C 165.253 127.395 180.478 117.736 197.608 110.978 C 214.739 104.221 232.629 100.84 251.283 100.84 C 271.076 100.84 289.97 104.698 307.957 112.403 C 325.947 120.113 341.501 130.534 354.636 143.668 C 367.77 156.799 378.191 172.358 385.901 190.347 C 393.604 208.334 397.461 227.222 397.461 247.021 C 397.461 266.819 393.605 285.707 385.901 303.693 C 378.191 321.68 367.77 337.237 354.636 350.372 C 341.501 363.506 325.941 373.93 307.957 381.637 C 289.97 389.344 271.076 393.198 251.283 393.198 C 228.632 393.198 207.219 388.249 187.042 378.355 C 166.868 368.461 149.833 354.472 135.938 336.382 C 134.607 334.48 132.417 333.336 129.371 332.953 C 126.515 332.953 124.135 333.808 122.232 335.519 L 83.118 374.921 C 81.597 376.451 80.788 378.399 80.692 380.774 C 80.598 383.159 81.219 385.298 82.55 387.201 C 103.299 412.326 128.421 431.788 157.923 445.583 C 187.425 459.381 218.548 466.284 251.285 466.284 C 280.979 466.284 309.335 460.476 336.363 448.868 C 363.394 437.261 386.703 421.648 406.312 402.047 C 425.917 382.438 441.523 359.126 453.134 332.098 C 464.745 305.07 470.545 276.706 470.545 247.018 C 470.546 217.32 464.742 188.971 453.135 161.942 Z" stroke-width="1" style="fill: rgb(0, 128, 85);"/>
</svg>